<svg xmlns="http://www.w3.org/2000/svg" version="1.1" xmlns:xlink="http://www.w3.org/1999/xlink" xmlns:svgjs="http://svgjs.dev/svgjs" viewBox="0 0 800 800"><defs><filter id="llleaves-blur-2" x="-100%" y="-100%" width="400%" height="400%"><feGaussianBlur in="SourceGraphic" stdDeviation="2"></feGaussianBlur></filter><filter id="llleaves-blur-3" x="-100%" y="-100%" width="400%" height="400%"><feGaussianBlur in="SourceGraphic" stdDeviation="4"></feGaussianBlur></filter><filter id="llleaves-blur-4" x="-100%" y="-100%" width="400%" height="400%"><feGaussianBlur in="SourceGraphic" stdDeviation="12"></feGaussianBlur></filter></defs><g fill="hsl(258, 22%, 86%)"><path d="M612 647H662C690 647 712 669 712 697H662C634 697 612 675 612 647Z " transform="matrix(-0.04393920352888383,-0.5022273944768175,0.5022273944768175,-0.04393920352888383,353.5909436476997,1034.001679915063)" opacity="0.77"></path><path d="M613 177H663C691 177 713 199 713 227H663C635 227 613 205 613 177Z " transform="matrix(-0.04393920352888383,-0.5022273944768175,0.5022273944768175,-0.04393920352888383,590.6817582553329,543.8524816509646)" opacity="0.77"></path><path d="M339 130H389C417 130 439 152 439 180H389C361 180 339 158 339 130Z " transform="matrix(-0.21620228199096053,0.21620228199096056,-0.21620228199096056,-0.21620228199096053,506.6140414030825,104.40866601411523)" filter="url(#llleaves-blur-2)" opacity="0.47"></path><path d="M695 724H745C773 724 795 746 795 774H745C717 774 695 752 695 724Z " transform="matrix(0.2975806835259415,-0.4762286430222018,0.4762286430222018,0.2975806835259415,166.60713714954443,880.9024070906102)" opacity="0.86"></path><path d="M500 309H550C578 309 600 331 600 359H550C522 359 500 337 500 309Z " transform="matrix(-0.3805557274080332,-0.14608165707868545,0.14608165707868545,-0.3805557274080332,710.5143766101373,541.4505243475601)" opacity="0.63"></path><path d="M596 367H646C674 367 696 389 696 417H646C618 417 596 395 596 367Z " transform="matrix(-0.11870702393549318,-0.4761078682772591,0.4761078682772591,-0.11870702393549318,536.0504530976431,746.0988362898227)" opacity="0.75"></path><path d="M-6 508H44C72 508 94 530 94 558H44C16 558 -6 536 -6 508Z " transform="matrix(-0.11864125922421176,-0.47584410042715203,0.47584410042715203,-0.11864125922421176,-204.40469012180674,617.1729315852995)" opacity="0.75"></path><path d="M-10 672H40C68 672 90 694 90 722H40C12 722 -10 700 -10 672Z " transform="matrix(-0.11864125922421176,-0.47584410042715203,0.47584410042715203,-0.11864125922421176,-286.9176876287565,798.7267216963617)" opacity="0.75"></path><path d="M367 726H417C445 726 467 748 467 776H417C389 776 367 754 367 726Z " transform="matrix(-0.30542748490123744,0.14242317522046724,-0.14242317522046724,-0.30542748490123744,651.3230657943869,920.9855770938944)" filter="url(#llleaves-blur-2)" opacity="0.52"></path><path d="M394 445H444C472 445 494 467 494 495H444C416 495 394 473 394 445Z " transform="matrix(-0.3231095566874248,0.11760226104117084,-0.11760226104117084,-0.3231095566874248,642.733705858567,569.6460877408098)" filter="url(#llleaves-blur-2)" opacity="0.53"></path><path d="M383 624H433C461 624 483 646 483 674H433C405 674 383 652 383 624Z " transform="matrix(-0.30542748490123744,0.14242317522046724,-0.14242317522046724,-0.30542748490123744,657.6827416803192,785.5532028304408)" filter="url(#llleaves-blur-2)" opacity="0.52"></path><path d="M478 21H528C556 21 578 43 578 71H528C500 71 478 49 478 21Z " transform="matrix(-0.3491369542672215,0.07421135055098435,-0.07421135055098435,-0.3491369542672215,715.7580339784382,22.87670680537245)" filter="url(#llleaves-blur-2)" opacity="0.55"></path><path d="M492 414H542C570 414 592 436 592 464H542C514 464 492 442 492 414Z " transform="matrix(-0.3805557274080332,-0.14608165707868545,0.14608165707868545,-0.3805557274080332,684.131356797611,685.240222468774)" opacity="0.63"></path><path d="M182 17H232C260 17 282 39 282 67H232C204 67 182 45 182 17Z " transform="matrix(-0.012700437512633847,0.2423387841725183,-0.2423387841725183,-0.012700437512633847,245.1247304381768,-13.689179552493627)" filter="url(#llleaves-blur-3)" opacity="0.37"></path><path d="M332 535H382C410 535 432 557 432 585H382C354 585 332 563 332 535Z " transform="matrix(-0.27209705862536476,0.17670189595802002,-0.17670189595802002,-0.27209705862536476,584.8941381313805,644.8742285742406)" filter="url(#llleaves-blur-2)" opacity="0.50"></path><path d="M297 336H347C375 336 397 358 397 386H347C319 386 297 364 297 336Z " transform="matrix(-0.26771308740571886,0.18057475752533841,-0.18057475752533841,-0.26771308740571886,505.0839287964316,394.9849836921721)" filter="url(#llleaves-blur-2)" opacity="0.49"></path><path d="M168 727H218C246 727 268 749 268 777H218C190 777 168 755 168 727Z " transform="matrix(-0.349390201866473,0.07426517998993244,-0.07426517998993244,-0.349390201866473,350.0144793593203,998.5516225657825)" filter="url(#llleaves-blur-2)" opacity="0.55"></path><path d="M285 22H335C363 22 385 44 385 72H335C307 72 285 50 285 22Z " transform="matrix(0.027571800498800886,0.22455429490523712,-0.22455429490523712,0.027571800498800886,336.3174986934478,-29.521563416698072)" filter="url(#llleaves-blur-3)" opacity="0.35"></path><path d="M-3 224H47C75 224 97 246 97 274H47C19 274 -3 252 -3 224Z " transform="matrix(-0.11864125922421176,-0.47584410042715203,0.47584410042715203,-0.11864125922421176,-65.90904182282291,300.90634626690485)" opacity="0.75"></path><path d="M582 14H632C660 14 682 36 682 64H632C604 64 582 42 582 14Z " transform="matrix(-0.2140971168782633,-0.4201892507836435,0.4201892507836435,-0.2140971168782633,750.9219970865004,312.909394053515)" opacity="0.72"></path><path d="M703 222H753C781 222 803 244 803 272H753C725 272 703 250 703 222Z " transform="matrix(0.3511343282378446,-0.4494314452037668,0.4494314452037668,0.3511343282378446,377.5862838715726,498.6916991636888)" opacity="0.88"></path><path d="M208 286H258C286 286 308 308 308 336H258C230 336 208 314 208 286Z " transform="matrix(-0.31688323474512714,0.12802913736450983,-0.12802913736450983,-0.31688323474512714,379.57293628460536,376.51916856569096)" filter="url(#llleaves-blur-2)" opacity="0.52"></path><path d="M469 723H519C547 723 569 745 569 773H519C491 773 469 751 469 723Z " transform="matrix(-0.3847188960406448,-0.08881935562072722,0.08881935562072722,-0.3847188960406448,652.2322290407907,1081.8669798055596)" filter="url(#llleaves-blur-2)" opacity="0.61"></path><path d="M708 122H758C786 122 808 144 808 172H758C730 172 708 150 708 122Z " transform="matrix(0.3777956125677193,-0.43460413708461315,0.43460413708461315,0.3777956125677193,407.7441175222306,420.893980862682)" opacity="0.89"></path><path d="M196 385H246C274 385 296 407 296 435H246C218 435 196 413 196 385Z " transform="matrix(-0.3337327242713408,0.10203233321653234,-0.10203233321653234,-0.3337327242713408,369.9315067895281,521.7304629799828)" filter="url(#llleaves-blur-2)" opacity="0.53"></path><path d="M101 386H151C179 386 201 408 201 436H151C123 436 101 414 101 386Z " transform="matrix(-0.3832928726606188,-0.1099074626296707,0.1099074626296707,-0.3832928726606188,163.70525663095876,585.1293975205945)" filter="url(#llleaves-blur-2)" opacity="0.61"></path><path d="M271 716H321C349 716 371 738 371 766H321C293 766 271 744 271 716Z " transform="matrix(-0.2718899619179688,0.17656740578371088,-0.17656740578371088,-0.2718899619179688,539.1131254613978,885.7923245246437)" filter="url(#llleaves-blur-2)" opacity="0.50"></path><path d="M-6 21H44C72 21 94 43 94 71H44C16 71 -6 49 -6 21Z " transform="matrix(-0.375,4.592425496802574e-17,-4.592425496802574e-17,-0.375,60.5,63.25)" filter="url(#llleaves-blur-2)" opacity="0.57"></path><path d="M465 527H515C543 527 565 549 565 577H515C487 577 465 555 465 527Z " transform="matrix(-0.3812877674148791,-0.033358357189911036,0.033358357189911036,-0.3812877674148791,692.9493870498318,779.6504015658174)" filter="url(#llleaves-blur-2)" opacity="0.59"></path><path d="M694 516H744C772 516 794 538 794 566H744C716 566 694 544 694 516Z " transform="matrix(0.2975806835259415,-0.4762286430222018,0.4762286430222018,0.2975806835259415,264.96027558168834,734.3229606209838)" opacity="0.86"></path><path d="M423 223H473C501 223 523 245 523 273H473C445 273 423 251 423 223Z " transform="matrix(-0.35672648233375226,0.05649992425337198,-0.05649992425337198,-0.35672648233375226,655.7436073587011,309.7437034469256)" filter="url(#llleaves-blur-2)" opacity="0.55"></path><path d="M161 200H211C239 200 261 222 261 250H211C183 250 161 228 161 200Z " transform="matrix(-0.36434592785014525,0.038294300118852945,-0.038294300118852945,-0.36434592785014525,296.4932083031225,298.89773644120464)" filter="url(#llleaves-blur-2)" opacity="0.56"></path><path d="M257 197H307C335 197 357 219 357 247H307C279 247 257 225 257 197Z " transform="matrix(-0.2771149643379477,0.17316064817022975,-0.17316064817022975,-0.2771149643379477,430.51595794554095,230.35920309476384)" filter="url(#llleaves-blur-2)" opacity="0.50"></path><path d="M700 320H750C778 320 800 342 800 370H750C722 370 700 348 700 320Z " transform="matrix(0.3511343282378446,-0.4494314452037668,0.4494314452037668,0.3511343282378446,331.595405226317,560.9322406607687)" opacity="0.88"></path></g><g fill="none" stroke-width="3" stroke="hsl(258, 22%, 86%)"><path d="M295 434H345C373 434 395 456 395 484H345C317 484 295 462 295 434Z " transform="matrix(-0.26771308740571886,0.18057475752533841,-0.18057475752533841,-0.26771308740571886,520.2448288591033,519.5820157729833)" filter="url(#llleaves-blur-2)" opacity="0.49"></path><path d="M99 283H149C177 283 199 305 199 333H149C121 333 99 311 99 283Z " transform="matrix(-0.37821568212640577,-0.1605430321581963,0.1605430321581963,-0.37821568212640577,155.90688273211,448.41134188650426)" opacity="0.63"></path><path d="M530 108H580C608 108 630 130 630 158H580C552 158 530 136 530 108Z " transform="matrix(-0.3673280722956235,-0.2036132753261611,0.2036132753261611,-0.3673280722956235,765.9697163130821,299.95033330449144)" opacity="0.64"></path><path d="M143 105H193C221 105 243 127 243 155H193C165 155 143 133 143 105Z " transform="matrix(-0.27716685557974685,0.1731930734168626,-0.1731930734168626,-0.27716685557974685,269.0083026710833,132.6054280559126)" filter="url(#llleaves-blur-2)" opacity="0.50"></path><path d="M250 612H300C328 612 350 634 350 662H300C272 662 250 640 250 612Z " transform="matrix(-0.28914716141883134,0.16027688877633312,-0.16027688877633312,-0.28914716141883134,488.8405265761736,773.1036751908955)" filter="url(#llleaves-blur-2)" opacity="0.51"></path><path d="M625 87H675C703 87 725 109 725 137H675C647 137 625 115 625 87Z " transform="matrix(0.02709351094999208,-0.5169749857872588,0.5169749857872588,0.02709351094999208,598.8106817005823,457.92364218000057)" opacity="0.80"></path><path d="M698 20H748C776 20 798 42 798 70H748C720 70 698 48 698 20Z " transform="matrix(0.4031945434259506,-0.41752017207252085,0.41752017207252085,0.4031945434259506,427.6220737741255,339.1613342560778)" opacity="0.89"></path><path d="M501 627H551C579 627 601 649 601 677H551C523 677 501 655 501 627Z " transform="matrix(-0.3645763666250264,-0.21048826341113475,0.21048826341113475,-0.3645763666250264,614.6432302663297,1005.6828241790524)" opacity="0.65"></path><path d="M603 272H653C681 272 703 294 703 322H653C625 322 603 300 603 272Z " transform="matrix(-0.04393920352888383,-0.5022273944768175,0.5022273944768175,-0.04393920352888383,532.5307637447463,638.0044320414404)" opacity="0.77"></path><path d="M239 105H289C317 105 339 127 339 155H289C261 155 239 133 239 105Z " transform="matrix(-0.13665193438451861,0.24652661547988874,-0.24652661547988874,-0.13665193438451861,360.5408690495114,76.51855959629958)" filter="url(#llleaves-blur-3)" opacity="0.43"></path><path d="M82 31H132C160 31 182 53 182 81H132C104 81 82 59 82 31Z " transform="matrix(-0.25483495235546666,0.1920319104552144,-0.1920319104552144,-0.25483495235546666,176.3920006964136,44.92254515181783)" filter="url(#llleaves-blur-2)" opacity="0.49"></path><path d="M400 338H450C478 338 500 360 500 388H450C422 388 400 366 400 338Z " transform="matrix(-0.3231095566874248,0.11760226104117084,-0.11760226104117084,-0.3231095566874248,638.0889212672862,427.36775160900834)" filter="url(#llleaves-blur-2)" opacity="0.53"></path><path d="M703 615H753C781 615 803 637 803 665H753C725 665 703 643 703 615Z " transform="matrix(0.3511343282378446,-0.4494314452037668,0.4494314452037668,0.3511343282378446,200.95972590649228,753.6959081662159)" opacity="0.88"></path><path d="M212 493H262C290 493 312 515 312 543H262C234 543 212 521 212 493Z " transform="matrix(-0.31688323474512714,0.12802913736450983,-0.12802913736450983,-0.31688323474512714,411.3425006580394,648.6018816084743)" filter="url(#llleaves-blur-2)" opacity="0.52"></path><path d="M1 416H51C79 416 101 438 101 466H51C23 466 1 444 1 416Z " transform="matrix(-0.18634823125729205,-0.43900892147456316,0.43900892147456316,-0.18634823125729205,-133.09917457616046,545.5690249796685)" opacity="0.73"></path><path d="M24 588H74C102 588 124 610 124 638H74C46 638 24 616 24 588Z " transform="matrix(-0.245551854124143,-0.39296511082491703,0.39296511082491703,-0.245551854124143,-148.7167757304876,792.6027047791436)" opacity="0.71"></path><path d="M110 657H160C188 657 210 679 210 707H160C132 707 110 685 110 657Z " transform="matrix(-0.3832928726606188,-0.1099074626296707,0.1099074626296707,-0.3832928726606188,146.3699701122636,960.9909331752893)" filter="url(#llleaves-blur-2)" opacity="0.61"></path><path d="M1 322H51C79 322 101 344 101 372H51C23 372 1 350 1 322Z " transform="matrix(-0.18634823125729205,-0.43900892147456316,0.43900892147456316,-0.18634823125729205,-91.83233595755155,434.0522912414831)" opacity="0.73"></path><path d="M697 418H747C775 418 797 440 797 468H747C719 468 697 446 697 418Z " transform="matrix(0.2975806835259415,-0.4762286430222018,0.4762286430222018,0.2975806835259415,313.7379405472863,666.9145535355927)" opacity="0.86"></path><path d="M517 207H567C595 207 617 229 617 257H567C539 257 517 235 517 207Z " transform="matrix(-0.3645763666250264,-0.21048826341113475,0.21048826341113475,-0.3645763666250264,724.8815227650067,435.9285624111195)" opacity="0.65"></path><path d="M585 555H635C663 555 685 577 685 605H635C607 605 585 583 585 555Z " transform="matrix(-0.11870702393549318,-0.4761078682772591,0.4761078682772591,-0.11870702393549318,434.2363965982279,951.1785702386455)" opacity="0.75"></path><path d="M-3 117H47C75 117 97 139 97 167H47C19 167 -3 145 -3 117Z " transform="matrix(-0.2690913135803314,-0.3703724189678072,0.3703724189678072,-0.2690913135803314,7.054408244846954,197.61847021989402)" opacity="0.70"></path><path d="M435 119H485C513 119 535 141 535 169H485C457 169 435 147 435 119Z " transform="matrix(-0.33427680188724457,0.102198674436809,-0.102198674436809,-0.33427680188724457,661.8408580342141,142.56950236991085)" filter="url(#llleaves-blur-2)" opacity="0.54"></path><path d="M73 167H123C151 167 173 189 173 217H123C95 217 73 195 73 167Z " transform="matrix(-0.3591674312992245,-0.22443272002288422,0.22443272002288422,-0.3591674312992245,124.08651180541084,288.5653713722659)" opacity="0.65"></path><path d="M379 26H429C457 26 479 48 479 76H429C401 76 379 54 379 26Z " transform="matrix(-0.09671029456073685,0.251938930803492,-0.251938930803492,-0.09671029456073685,483.3376018375342,-52.14957629210049)" filter="url(#llleaves-blur-3)" opacity="0.41"></path><path d="M96 487H146C174 487 196 509 196 537H146C118 537 96 515 96 487Z " transform="matrix(-0.37821568212640577,-0.1605430321581963,0.1605430321581963,-0.37821568212640577,119.02145712545874,729.0857119438162)" opacity="0.63"></path><path d="M34 740H84C112 740 134 762 134 790H84C56 790 34 768 34 740Z " transform="matrix(-0.2951509496950794,-0.3395323278904965,0.3395323278904965,-0.2951509496950794,-150.94955106184312,1019.3111920595375)" opacity="0.69"></path><path d="M577 731H627C655 731 677 753 677 781H627C599 781 577 759 577 731Z " transform="matrix(-0.18632430641253706,-0.43895255807244515,0.43895255807244515,-0.18632430641253706,411.9772062178922,1172.084429559301)" opacity="0.73"></path><path d="M148 573H198C226 573 248 595 248 623H198C170 623 148 601 148 573Z " transform="matrix(-0.37632632100995306,-0.006568800367425864,0.006568800367425864,-0.37632632100995306,268.5844689402501,824.3437624367023)" filter="url(#llleaves-blur-2)" opacity="0.58"></path><path d="M334 245H384C412 245 434 267 434 295H384C356 295 334 273 334 245Z " transform="matrix(-0.2805191588475895,0.16855291543425324,-0.16855291543425324,-0.2805191588475895,537.2286441647227,281.0158533620959)" filter="url(#llleaves-blur-2)" opacity="0.50"></path><path d="M585 464H635C663 464 685 486 685 514H635C607 514 585 492 585 464Z " transform="matrix(-0.11870702393549318,-0.4761078682772591,0.4761078682772591,-0.11870702393549318,477.56221261145845,849.3762310605157)" opacity="0.75"></path></g></svg>